<svg width="24" height="24" viewBox="0 0 24 24" fill="none" xmlns="http://www.w3.org/2000/svg">
<path d="M7.20505 7.16011V4.6001C7.20505 4.0401 7.64505 3.6001 8.20505 3.6001C8.76505 3.6001 9.20505 4.0401 9.20505 4.6001V7.16011C9.20505 7.72011 8.76505 8.16011 8.20505 8.16011C7.64505 8.16011 7.20505 7.72011 7.20505 7.16011ZM15.8051 8.16011C16.3651 8.16011 16.8051 7.72011 16.8051 7.16011V4.6001C16.8051 4.0401 16.3651 3.6001 15.8051 3.6001C15.2451 3.6001 14.8051 4.0401 14.8051 4.6001V7.16011C14.8051 7.72011 15.2451 8.16011 15.8051 8.16011ZM21.2051 5.88008V19.4001C21.2051 19.8401 20.8451 20.2001 20.4051 20.2001H3.60505C3.16505 20.2001 2.80505 19.8401 2.80505 19.4001V5.88008C2.80505 5.44008 3.16505 5.0001 3.60505 5.0001H5.46506C5.90506 5.0001 6.26506 5.3601 6.26506 5.8001C6.26506 6.2401 5.90506 6.6001 5.46506 6.6001H4.38506V10.0001H19.5851V6.6001H18.525C18.085 6.6001 17.725 6.2401 17.725 5.8001C17.725 5.3601 18.085 5.0001 18.525 5.0001H20.3851C20.8451 5.0001 21.2051 5.44008 21.2051 5.88008ZM19.6051 18.6001V11.4001H4.40505V18.6001H19.6051ZM10.745 6.6001H13.2651C13.7051 6.6001 14.0651 6.2401 14.0651 5.8001C14.0651 5.3601 13.7051 5.0001 13.2651 5.0001H10.745C10.305 5.0001 9.94504 5.3601 9.94504 5.8001C9.94504 6.2401 10.305 6.6001 10.745 6.6001Z" fill="url(#paint0_linear_1089_4508)"/>
<defs>
<linearGradient id="paint0_linear_1089_4508" x1="12.0051" y1="3.6001" x2="12.0051" y2="20.2001" gradientUnits="userSpaceOnUse">
<stop offset="0.585635" stop-color="#F9F8FD"/>
<stop offset="1" stop-color="white"/>
</linearGradient>
</defs>
</svg>
