<svg width="24" height="24" viewBox="0 0 24 24" fill="none" xmlns="http://www.w3.org/2000/svg">
<g id="calendar">
<path id="XMLID 742" d="M7.20518 7.16011V4.6001C7.20518 4.0401 7.64518 3.6001 8.20518 3.6001C8.76518 3.6001 9.20518 4.0401 9.20518 4.6001V7.16011C9.20518 7.72011 8.76518 8.16011 8.20518 8.16011C7.64518 8.16011 7.20518 7.72011 7.20518 7.16011ZM15.8052 8.16011C16.3652 8.16011 16.8052 7.72011 16.8052 7.16011V4.6001C16.8052 4.0401 16.3652 3.6001 15.8052 3.6001C15.2452 3.6001 14.8052 4.0401 14.8052 4.6001V7.16011C14.8052 7.72011 15.2452 8.16011 15.8052 8.16011ZM21.2052 5.88008V19.4001C21.2052 19.8401 20.8452 20.2001 20.4052 20.2001H3.60518C3.16518 20.2001 2.80518 19.8401 2.80518 19.4001V5.88008C2.80518 5.44008 3.16518 5.0001 3.60518 5.0001H5.46519C5.90519 5.0001 6.26519 5.3601 6.26519 5.8001C6.26519 6.2401 5.90519 6.6001 5.46519 6.6001H4.38518V10.0001H19.5852V6.6001H18.5252C18.0852 6.6001 17.7252 6.2401 17.7252 5.8001C17.7252 5.3601 18.0852 5.0001 18.5252 5.0001H20.3852C20.8452 5.0001 21.2052 5.44008 21.2052 5.88008ZM19.6052 18.6001V11.4001H4.40518V18.6001H19.6052ZM10.7452 6.6001H13.2652C13.7052 6.6001 14.0652 6.2401 14.0652 5.8001C14.0652 5.3601 13.7052 5.0001 13.2652 5.0001H10.7452C10.3052 5.0001 9.94517 5.3601 9.94517 5.8001C9.94517 6.2401 10.3052 6.6001 10.7452 6.6001Z" fill="#070821"/>
</g>
</svg>
