<svg width="16" height="16" viewBox="0 0 16 16" fill="none" xmlns="http://www.w3.org/2000/svg">
<path d="M14.6072 8.48697V15.3043C14.6072 15.687 14.2938 16 13.9108 16C13.5277 16 13.2144 15.687 13.2144 15.3043V8.48697C13.2144 8.10436 13.5277 7.79131 13.9108 7.79131C14.2938 7.79131 14.6072 8.10436 14.6072 8.48697ZM13.9108 1.98259C14.2938 1.98259 14.6072 1.66955 14.6072 1.28694V0.695652C14.6072 0.313043 14.2938 0 13.9108 0C13.5277 0 13.2144 0.313043 13.2144 0.695652V1.28694C13.2144 1.66955 13.5277 1.98259 13.9108 1.98259ZM4.14364 8C4.14364 9.14783 3.20348 10.087 2.07182 10.087C0.940152 10.087 -4.25054e-06 9.14783 -4.25054e-06 8C-4.25054e-06 6.85217 0.940152 5.91304 2.07182 5.91304C3.20348 5.91304 4.14364 6.85217 4.14364 8ZM2.75082 8C2.75082 7.61739 2.43743 7.30435 2.07182 7.30435C1.7062 7.30435 1.39281 7.61739 1.39281 8C1.39281 8.38261 1.7062 8.69565 2.07182 8.69565C2.43743 8.69565 2.75082 8.38261 2.75082 8ZM10.0631 11.4261C10.0631 12.5739 9.12296 13.513 7.99129 13.513C6.85963 13.513 5.91947 12.5739 5.91947 11.4261C5.91947 10.2783 6.85963 9.33912 7.99129 9.33912C9.12296 9.33912 10.0631 10.2609 10.0631 11.4261ZM8.6703 11.4261C8.6703 11.0435 8.35691 10.7304 7.99129 10.7304C7.62568 10.7304 7.31229 11.0435 7.31229 11.4261C7.31229 11.8087 7.62568 12.1217 7.99129 12.1217C8.35691 12.1217 8.6703 11.8087 8.6703 11.4261ZM16 4.97393C16 6.12176 15.0598 7.06089 13.9282 7.06089C12.7965 7.06089 11.8564 6.12176 11.8564 4.97393C11.8564 3.8261 12.7965 2.88697 13.9282 2.88697C15.0598 2.88697 16 3.8261 16 4.97393ZM14.6072 4.97393C14.6072 4.59132 14.2938 4.27828 13.9282 4.27828C13.5626 4.27828 13.2492 4.59132 13.2492 4.97393C13.2492 5.35654 13.5626 5.66958 13.9282 5.66958C14.2938 5.66958 14.6072 5.37393 14.6072 4.97393ZM7.99129 14.2087C7.60827 14.2087 7.29489 14.5217 7.29489 14.9043V15.3043C7.29489 15.687 7.60827 16 7.99129 16C8.37432 16 8.6877 15.687 8.6877 15.3043V14.9043C8.6877 14.5217 8.37432 14.2087 7.99129 14.2087ZM7.99129 8.46956C8.37432 8.46956 8.6877 8.15651 8.6877 7.7739V0.695652C8.6877 0.313043 8.37432 0 7.99129 0C7.60827 0 7.29489 0.313043 7.29489 0.695652V7.7739C7.29489 8.15651 7.60827 8.46956 7.99129 8.46956ZM2.07182 11.0087C1.68879 11.0087 1.37541 11.3217 1.37541 11.7044V15.3043C1.37541 15.687 1.68879 16 2.07182 16C2.45484 16 2.76823 15.687 2.76823 15.3043V11.7044C2.76823 11.3217 2.45484 11.0087 2.07182 11.0087ZM2.07182 5.02607C2.45484 5.02607 2.76823 4.71303 2.76823 4.33042V0.695652C2.76823 0.313043 2.45484 0 2.07182 0C1.68879 0 1.37541 0.313043 1.37541 0.695652V4.33042C1.37541 4.71303 1.68879 5.02607 2.07182 5.02607Z" fill="#070821"/>
</svg>
