<svg width="24" height="24" viewBox="0 0 24 24" fill="none" xmlns="http://www.w3.org/2000/svg">
<path d="M12 2C6.47826 2 2 6.47826 2 12C2 17.5217 6.47826 22 12 22C17.5217 22 22 17.5217 22 12C22 6.47826 17.5217 2 12 2ZM12 20.2609C7.43478 20.2609 3.73913 16.5652 3.73913 12C3.73913 7.43478 7.43478 3.73913 12 3.73913C16.5652 3.73913 20.2609 7.43478 20.2609 12C20.2609 16.5652 16.5652 20.2609 12 20.2609Z" fill="#070821"/>
<path d="M15.3263 15.3261C15.6741 14.9783 15.6741 14.4348 15.3263 14.087L12.8915 11.6739V6.84784C12.8915 6.36958 12.5002 5.97827 12.0219 5.97827C11.5436 5.97827 11.1523 6.36958 11.1523 6.84784V12.0218C11.1523 12.2392 11.2393 12.4565 11.4132 12.6304L14.1089 15.3261C14.2828 15.5 14.5002 15.587 14.7176 15.587C14.935 15.587 15.1524 15.5 15.3263 15.3261Z" fill="#070821"/>
</svg>
