<svg width="10" height="14" viewBox="0 0 10 14" fill="none" xmlns="http://www.w3.org/2000/svg">
<path d="M8.00337 1.92004C7.24337 1.24004 6.1767 0.866699 5.0167 0.866699C3.8567 0.866699 2.79003 1.24004 2.03003 1.92004C1.11003 2.7467 0.616696 3.9867 0.616696 5.52004C0.616696 8.8667 4.47004 12.8 4.64337 12.96C4.75004 13.0667 4.88336 13.12 5.0167 13.12C5.15003 13.12 5.2967 13.0667 5.39004 12.96C5.55004 12.8 9.4167 8.8667 9.4167 5.52004C9.40336 3.9867 8.92337 2.7467 8.00337 1.92004ZM5.00337 11.8134C4.64337 11.4134 4.07004 10.7467 3.51004 9.9467C2.31004 8.24003 1.67003 6.72003 1.67003 5.53337C1.67003 2.20003 4.2167 1.93337 5.00337 1.93337C8.0967 1.93337 8.3367 4.69337 8.3367 5.53337C8.3367 7.88003 5.95003 10.7734 5.00337 11.8134ZM5.00337 3.17336C3.83003 3.17336 2.88336 4.1467 2.88336 5.33337C2.88336 6.52003 3.83003 7.49337 5.00337 7.49337C6.1767 7.49337 7.12337 6.52003 7.12337 5.33337C7.12337 4.13337 6.1767 3.17336 5.00337 3.17336ZM5.00337 6.5467C4.35003 6.5467 3.8167 6.00004 3.8167 5.32004C3.8167 4.64004 4.35003 4.09337 5.00337 4.09337C5.6567 4.09337 6.19004 4.64004 6.19004 5.32004C6.19004 6.00004 5.6567 6.5467 5.00337 6.5467Z" fill="#070821"/>
</svg>
