<svg width="19" height="19" viewBox="0 0 19 19" fill="none" xmlns="http://www.w3.org/2000/svg">
<path d="M10.2876 8.58708L10.2873 8.58676C10.2267 8.52604 10.1929 8.49884 10.1177 8.44042L10.1166 8.43954C9.90051 8.27107 9.63458 8.15771 9.29719 8.10876L9.29683 8.10871C9.16673 8.08977 9.00924 8.08212 8.80887 8.0851L10.2876 8.58708ZM10.2876 8.58708C10.6199 8.91969 10.8283 9.26534 10.9286 9.58821L10.9286 9.58836C11.0295 9.91291 11.0566 10.2948 10.9668 10.8722C10.9362 11.0646 10.898 11.239 10.7895 11.7337C10.7819 11.7684 10.7739 11.8048 10.7656 11.8428L10.7655 11.8431C10.615 12.5311 10.5498 12.8867 10.5014 13.3234L10.5013 13.3242C10.4503 13.7881 10.4377 14.1676 10.467 14.6549L10.467 14.6554C10.4916 15.0595 10.4789 15.4128 10.431 15.75C10.3305 16.4575 10.0859 17.0282 9.74088 17.4583L9.74078 17.4585C9.66854 17.5486 9.63462 17.5902 9.566 17.6586L9.56544 17.6592C9.4571 17.7675 9.39686 17.8188 9.29358 17.8923L9.29168 17.8937C9.0004 18.1025 8.67195 18.2204 8.31304 18.2472L8.30853 18.2475C8.30951 18.2474 8.2969 18.2483 8.26698 18.249C8.24024 18.2497 8.20807 18.25 8.17471 18.25C8.14134 18.25 8.10929 18.2497 8.08276 18.249C8.05889 18.2484 8.04646 18.2478 8.04335 18.2476C8.04257 18.2476 8.04238 18.2476 8.04275 18.2476L8.03797 18.2472C7.6223 18.2158 7.26426 18.0853 6.99196 17.8918C6.92083 17.8412 6.902 17.8276 6.88033 17.8096C6.8595 17.7924 6.82741 17.7637 6.75099 17.688L6.74939 17.6864C6.70267 17.6404 6.66408 17.5978 6.64092 17.5719C6.6186 17.544 6.59558 17.5168 6.58438 17.5037L6.5833 17.5024C6.51292 17.4202 6.40843 17.2874 6.33176 17.1741C6.21117 16.9943 6.12471 16.8434 5.85996 16.3757L5.85994 16.3757C5.63121 15.9717 5.52368 15.7943 5.4026 15.6025M10.2876 8.58708L0.85427 11.572M7.08431 8.30422L7.08426 8.30422C6.27954 8.44437 5.85274 8.50212 5.37208 8.53378L5.37207 8.53378C5.02142 8.55687 4.70262 8.55836 4.3404 8.53366L4.34016 8.53365C3.7062 8.49022 3.13207 8.5586 2.61563 8.72805C2.16899 8.87506 1.80676 9.07966 1.50455 9.3442L1.50289 9.34566L1.50289 9.34566C1.48857 9.35812 1.44528 9.39895 1.39015 9.45406C1.36487 9.47933 1.34072 9.50398 1.32058 9.52505C1.31055 9.53554 1.30219 9.54444 1.29563 9.55156L1.28796 9.55997C1.28623 9.5619 1.28539 9.56286 1.28531 9.56296C1.2853 9.56296 1.2853 9.56297 1.2853 9.56297L1.28288 9.56577L1.28287 9.56577C0.989182 9.90244 0.823812 10.2563 0.769554 10.642L7.08431 8.30422ZM7.08431 8.30422C7.69649 8.19756 7.9095 8.16424 8.16888 8.13155M7.08431 8.30422L8.16888 8.13155M0.85427 11.572L0.854419 11.5724C0.987376 11.9261 1.24589 12.253 1.84794 12.6582L1.84917 12.659C2.03715 12.7861 2.29235 12.9448 2.73039 13.193L2.73146 13.1936C3.3772 13.561 3.7524 13.8006 4.08458 14.0658C4.57492 14.4572 4.99765 14.9578 5.4026 15.6025M0.85427 11.572C0.762368 11.328 0.72317 10.974 0.769497 10.6424L0.85427 11.572ZM5.4026 15.6025C5.40238 15.6022 5.40217 15.6018 5.40195 15.6015L4.7678 16.002L5.40295 15.6031C5.40283 15.6029 5.40271 15.6027 5.4026 15.6025ZM8.16888 8.13155C8.40821 8.10176 8.61611 8.08797 8.80885 8.0851L8.16888 8.13155Z" stroke="#4552CB" stroke-width="1.5"/>
<path d="M12.4887 4.44762L12.4887 4.44759C12.8879 3.91307 13.0975 3.31686 13.1152 2.75909C13.1243 2.45611 13.0638 2.1863 12.9644 1.98925L12.9643 1.98912C12.86 1.78227 12.7026 1.62715 12.5229 1.53681C12.4178 1.4841 12.312 1.45174 12.1634 1.43553C12.1601 1.43538 12.1502 1.43489 12.132 1.43443C12.1059 1.43375 12.0734 1.43336 12.0393 1.43335C12.0052 1.43334 11.9725 1.43371 11.9459 1.43438C11.9213 1.435 11.9108 1.43566 11.9108 1.43561C11.5589 1.46948 11.1622 1.63005 10.7768 1.92916C10.7134 1.97868 10.688 2.00006 10.6619 2.02385C10.6296 2.05349 10.5912 2.09141 10.501 2.18154C10.4886 2.19398 10.4769 2.20563 10.4659 2.2166C10.3187 2.36391 10.2967 2.38595 10.217 2.48835C9.6652 3.19968 9.46676 4.02755 9.59566 4.64984L9.5959 4.651C9.64378 4.88401 9.73857 5.07137 9.86488 5.21847C9.86613 5.21978 9.8692 5.223 9.8745 5.22833C9.88421 5.23809 9.89685 5.25037 9.91118 5.26387C9.92538 5.27724 9.93954 5.29021 9.95191 5.30125C9.96509 5.31301 9.97268 5.3194 9.97445 5.32085L9.49914 5.90101M12.4887 4.44762L10.4826 5.53384C10.4607 5.5311 10.4208 5.5252 10.3795 5.51782C10.3594 5.51423 10.342 5.51082 10.3284 5.5079C10.3195 5.50599 10.3149 5.50484 10.3138 5.50458C10.2009 5.47197 10.0832 5.40953 9.97312 5.31976L9.49914 5.90101M12.4887 4.44762C12.3458 4.63886 12.1522 4.83461 11.9545 4.99699L12.4887 4.44762ZM9.49914 5.90101C9.67795 6.04682 9.88481 6.16149 10.1067 6.22542L10.3161 1.33736C10.176 1.44667 10.1436 1.47843 9.9706 1.65125C9.95673 1.66515 9.94363 1.67825 9.93121 1.69066C9.78511 1.83672 9.73366 1.88817 9.62474 2.02826C8.96684 2.87611 8.67914 3.92277 8.86125 4.80196C8.93384 5.15525 9.08419 5.46254 9.30074 5.71271C9.34405 5.76262 9.44779 5.85894 9.49914 5.90101Z" stroke="#4552CB" stroke-width="1.5"/>
<path d="M17.3637 12.8583L17.3625 12.8565C17.3158 12.7858 17.3006 12.7654 17.257 12.7194C17.1276 12.584 16.9498 12.4718 16.6768 12.3775C16.4624 12.3042 16.2749 12.2673 16.0423 12.2611L16.0409 12.261L16.0365 12.2609C15.9371 12.258 15.8896 12.2567 15.8361 12.2599L15.7904 11.5113M17.3637 12.8583L15.102 15.1155C14.7003 15.1086 14.3352 14.9942 14.0855 14.8257C14.0443 14.7977 14.0312 14.7872 14.0217 14.779C14.0065 14.7661 13.9858 14.7469 13.9279 14.6905L13.9276 14.6902C13.9204 14.6831 13.9133 14.6763 13.9065 14.6696C13.8842 14.6478 13.8643 14.6285 13.8471 14.6115C13.8414 14.6058 13.8367 14.6011 13.833 14.5974C13.6997 14.43 13.631 14.2309 13.631 14.0235C13.631 13.6477 13.8512 13.1764 14.365 12.7931L14.3653 12.7928C14.7697 12.4908 15.3166 12.292 15.8366 12.2599L15.7904 11.5113M17.3637 12.8583C17.4019 12.9156 17.4304 12.9748 17.4646 13.0775L17.4646 13.0775L17.4655 13.0799C17.4981 13.1769 17.5103 13.249 17.5103 13.3738L17.3637 12.8583ZM15.7904 11.5113C15.1286 11.5522 14.441 11.8003 13.9165 12.1919L16.0624 11.5113C16.056 11.5111 16.0496 11.511 16.0433 11.5108C15.9576 11.5083 15.8785 11.506 15.7904 11.5113ZM16.9288 14.4638C16.5868 14.7634 16.1705 14.9709 15.6939 15.0675L16.9288 14.4638ZM15.6938 15.0675C15.5015 15.1064 15.331 15.1194 15.1022 15.1155L15.6938 15.0675Z" stroke="#4552CB" stroke-width="1.5"/>
<path d="M4.56596 5.31709C4.56596 5.3171 4.56597 5.3171 4.56598 5.31711C4.61624 5.35561 4.63827 5.37227 4.65793 5.38578C4.67188 5.39536 4.68263 5.40188 4.69864 5.40999L4.69961 5.41048C5.04622 5.58663 5.58104 5.54929 6.13111 5.03797L4.56596 5.31709ZM4.56596 5.31709C4.56565 5.31685 4.56488 5.31625 4.56364 5.31526L4.55701 5.3099L4.5362 5.29249C4.51967 5.27842 4.50073 5.2618 4.48193 5.24477C4.4629 5.22752 4.44642 5.21201 4.43413 5.19996C4.42976 5.19568 4.42674 5.19263 4.42489 5.19073C4.24798 4.97771 4.1238 4.68812 4.09193 4.319L4.56596 5.31709ZM5.90248 1.76262L5.90046 1.76272C5.76324 1.7688 5.62149 1.79697 5.47889 1.85445C5.36378 1.90147 5.20767 1.98776 5.09082 2.07457C5.03808 2.1141 5.01973 2.12956 5.00141 2.14623C4.97479 2.17045 4.9426 2.20241 4.85949 2.28575L4.85879 2.28645C4.78056 2.36468 4.74924 2.39807 4.72764 2.42302C4.70703 2.44681 4.68853 2.47053 4.63603 2.54068L4.63544 2.54146C4.24063 3.0675 4.04232 3.74292 4.09192 4.31891L5.90248 1.76262ZM5.90248 1.76262C6.10783 1.75295 6.28735 1.80418 6.44686 1.9138L5.90248 1.76262ZM6.67167 2.13554C6.93324 2.48305 7.05667 3.11702 6.86137 3.81463L6.44695 1.91386C6.51612 1.96144 6.59891 2.0398 6.67167 2.13554ZM6.86131 3.81486C6.72614 4.29679 6.46291 4.72941 6.13119 5.0379L6.86131 3.81486Z" stroke="#4552CB" stroke-width="1.5"/>
<path d="M16.5691 6.01031L16.5691 6.0103C16.5693 6.01032 16.5682 6.01023 16.5656 6.01008L16.5553 6.00956C16.5464 6.00917 16.5352 6.0088 16.5217 6.00848C16.4945 6.00783 16.4623 6.00752 16.4283 6.00757C16.3569 6.00769 16.2948 6.00941 16.2656 6.01118L16.5691 6.01031ZM16.5691 6.01031L16.5719 6.01052M16.5691 6.01031L16.5719 6.01052M16.5719 6.01052C16.9527 6.03898 17.2332 6.15645 17.4413 6.3257L16.5719 6.01052ZM13.481 8.21094L13.4808 8.21193C13.3986 8.63186 13.4956 8.95743 13.7037 9.1932C13.8359 9.34244 14.0662 9.48614 14.3591 9.5589L14.3594 9.55897C15.1126 9.74638 16.1472 9.47398 16.955 8.75358L16.9565 8.7523C16.9797 8.73171 17.0414 8.67298 17.1112 8.60341C17.1442 8.57055 17.1752 8.53912 17.2001 8.5132C17.2197 8.49275 17.2301 8.48134 17.2337 8.47738C17.2354 8.47553 17.2356 8.47531 17.2346 8.47656L17.2364 8.47444C17.5402 8.11339 17.7096 7.75898 17.7777 7.43363C17.8615 7.02694 17.7862 6.72784 17.6048 6.48657C17.6029 6.48439 17.5984 6.47932 17.5908 6.47102C17.5762 6.45527 17.557 6.43544 17.5354 6.4139C17.5139 6.39253 17.4924 6.37191 17.4737 6.35464C17.4645 6.34607 17.4566 6.33902 17.4505 6.33359L13.481 8.21094ZM13.481 8.21094C13.5453 7.88028 13.7107 7.52868 14.0109 7.16679C14.0109 7.16679 14.0109 7.16679 14.0109 7.16679C14.0109 7.16675 14.011 7.1667 14.011 7.16663C14.0127 7.16477 14.0252 7.15059 14.0532 7.12139C14.0804 7.09302 14.1138 7.05916 14.1494 7.02383C14.223 6.95067 14.2912 6.88576 14.3215 6.85872C14.8918 6.35184 15.6008 6.05221 16.2653 6.0112L13.481 8.21094ZM17.6007 6.48114L17.6007 6.4812L17.6007 6.48114Z" stroke="#4552CB" stroke-width="1.5"/>
</svg>
