<svg width="16" height="16" viewBox="0 0 16 16" fill="none" xmlns="http://www.w3.org/2000/svg">
<path d="M11.5101 8.43997C11.6834 8.6133 11.7768 8.8533 11.7768 9.10663C11.7768 9.34663 11.6834 9.58662 11.5101 9.75995C11.3368 9.93329 11.0968 10.04 10.8434 10.04C10.6034 10.04 10.3634 9.93329 10.1768 9.75995C10.0034 9.58662 9.91009 9.34663 9.91009 9.10663C9.91009 8.8533 10.0168 8.62663 10.1768 8.43997C10.3501 8.26663 10.5901 8.1733 10.8434 8.1733C11.0968 8.1733 11.3368 8.26663 11.5101 8.43997ZM14.0034 6.35995V12.2533C14.0034 12.8533 13.5234 13.3333 12.9234 13.3333H3.27008C2.56342 13.3333 2.00342 12.76 2.00342 12.0666V7.26663V6.14664V4.26663C2.00342 3.38663 2.72342 2.66663 3.60342 2.66663H10.9768C11.7101 2.66663 12.2701 3.26663 12.2701 3.99996V4.79996H12.5101C13.3368 4.79996 14.0034 5.53329 14.0034 6.35995ZM2.99009 4.26663C2.99009 4.55996 3.23009 4.79996 3.52342 4.79996H11.2034V3.9733C11.2034 3.83997 11.0967 3.73329 10.9634 3.73329H3.52342C3.23009 3.73329 2.99009 3.97329 2.99009 4.26663ZM12.9368 6.35995C12.9368 6.13329 12.7501 5.86663 12.5101 5.86663H3.28341C3.16341 5.86663 3.07008 6.02664 3.07008 6.14664V7.26663V12.0666C3.07008 12.1733 3.16342 12.2666 3.27008 12.2666H12.9234C12.9368 12.2666 12.9368 12.2533 12.9368 12.2533V6.35995Z" fill="#070821"/>
</svg>
