<svg width="24" height="24" viewBox="0 0 24 24" fill="none" xmlns="http://www.w3.org/2000/svg">
<path d="M20.7652 7.23211C20.6087 7.07911 20.413 7.06 20.2174 7.06H16.1087V4.765C16.1087 4.34425 15.7174 4 15.287 4H8.71303C8.2826 4 7.8913 4.34425 7.8913 4.765V7.06H3.78261C3.35217 7.06 3 7.30862 3 7.72938V18.535C3 18.9557 3.35217 19.3 3.78261 19.3H20.2174C20.6478 19.3 21 18.9557 21 18.535V7.76762C21 7.55724 20.9217 7.38511 20.7652 7.23211ZM9.45652 5.53H14.5435V7.06H9.45652V5.53ZM19.4348 8.59V12.6062H13.9565V12.3194C13.9565 11.9943 13.6435 11.8413 13.3109 11.8413H10.6696C10.3369 11.8413 10.0239 12.0134 10.0239 12.3194V12.6062H4.54566V8.59H19.4348ZM12.7826 12.9887V13.3713H11.2174V12.9887H12.7826ZM4.56522 17.77V13.7537H10.0435V13.945C10.0435 14.2701 10.3565 14.5188 10.6891 14.5188H13.3304C13.6631 14.5188 13.9761 14.251 13.9761 13.945V13.7537H19.4543V17.77H4.56522Z" fill="#070821"/>
</svg>
