<svg width="20" height="18" viewBox="0 0 20 18" fill="none" xmlns="http://www.w3.org/2000/svg">
<path d="M19.1861 6.66011C19.0055 6.06011 18.6445 5.58014 18.1028 5.30015C17.4208 4.94015 16.6184 4.98013 16.0568 5.08013L14.8732 0.960106C14.793 0.680106 14.5723 0.460145 14.2915 0.400145C14.0106 0.340145 13.7097 0.420184 13.5091 0.640184C10.6406 3.84018 9.45705 4.62014 6.28759 6.00014L3.80016 6.72016C1.61363 7.36016 0.349865 9.66018 0.971721 11.8402C1.27262 12.9002 1.97471 13.8002 2.95764 14.3402C3.5795 14.6802 4.26154 14.8601 4.94357 14.8601C5.26453 14.8601 5.60556 14.8202 5.92651 14.7402L6.18729 15.6801C6.32771 16.1801 6.60854 16.6201 6.96962 16.9801L7.39088 17.3801C7.55136 17.5201 7.75196 17.6001 7.95256 17.6001C8.17322 17.6001 8.37382 17.5201 8.5343 17.3601C8.8352 17.0401 8.83519 16.5402 8.49418 16.2202L8.07291 15.8202C7.91243 15.6602 7.79208 15.4602 7.7319 15.2402L7.47111 14.3001L8.6346 13.9601C11.9645 13.4601 13.469 13.5001 17.5412 14.6601C17.6214 14.6801 17.6816 14.7001 17.7618 14.7001C17.9624 14.7001 18.1831 14.6201 18.3235 14.4601C18.5241 14.2601 18.6044 13.9601 18.5241 13.6801L17.3406 9.58013C17.8621 9.38013 18.5642 9.02011 18.9654 8.36011C19.2864 7.86011 19.3666 7.28011 19.1861 6.66011ZM3.76004 12.9601C3.15824 12.6401 2.73699 12.0802 2.53639 11.4402C2.15525 10.0802 2.93758 8.68013 4.26153 8.28013L6.06692 7.76011L6.88939 10.6601L7.45106 12.6601L5.64567 13.1801C5.02381 13.3601 4.34177 13.2801 3.76004 12.9601ZM11.9244 12.0801C11.0217 12.0801 10.119 12.1601 9.05585 12.3001L7.89238 8.20015L7.61154 7.20015C10.1792 6.04014 11.5433 5.14013 13.7699 2.78013L16.6184 12.7601C14.6927 12.2801 13.3286 12.0801 11.9244 12.0801ZM17.6214 7.54018C17.5011 7.76018 17.2002 7.92018 16.9193 8.04018L16.5181 6.64018C16.819 6.60018 17.16 6.60016 17.3807 6.72016C17.481 6.78016 17.5813 6.86013 17.6615 7.08013C17.7217 7.32013 17.6615 7.44018 17.6214 7.54018ZM12.5463 6.22016C12.7669 6.54016 12.7067 6.98014 12.3858 7.20015C11.6436 7.72015 10.8011 8.18015 10.7609 8.20015C10.6606 8.26015 10.5403 8.28013 10.44 8.28013C10.1792 8.28013 9.93848 8.14015 9.81812 7.90015C9.63758 7.56014 9.778 7.14011 10.119 6.96011C10.119 6.96011 10.9214 6.54013 11.5633 6.08013C11.8642 5.82013 12.3056 5.90016 12.5463 6.22016Z" fill="#4552CB"/>
</svg>
